<?xml version="1.0" encoding="UTF-8" standalone="no"?>
<svg
   xmlns:dc="http://purl.org/dc/elements/1.1/"
   xmlns:cc="http://creativecommons.org/ns#"
   xmlns:rdf="http://www.w3.org/1999/02/22-rdf-syntax-ns#"
   xmlns:svg="http://www.w3.org/2000/svg"
   xmlns="http://www.w3.org/2000/svg"
   id="svg2451"
   viewBox="0, 0, 128, 128"
   height="128"
   width="128"
   y="0px"
   x="0px"
   version="1.1">
  <metadata
     id="metadata2455">
    <rdf:RDF>
      <cc:Work
         rdf:about="">
        <dc:format>image/svg+xml</dc:format>
        <dc:type
           rdf:resource="http://purl.org/dc/dcmitype/StillImage" />
        <dc:title></dc:title>
      </cc:Work>
    </rdf:RDF>
  </metadata>
  <g
     transform="matrix(1.2705,0,0,1.2705,-28.882197,-27.900779)"
     id="Background">
    <rect
       style="fill:#000000;fill-opacity:0"
       id="rect2434"
       height="128"
       width="128"
       y="0"
       x="0" />
  </g>
  <g
     id="g2447">
    <g
       style="fill:#ebeded;fill-opacity:1"
       id="g3681"
       transform="matrix(0.2025,0,0,0.2025,11.313137,17.859557)" />
    <g
       style="fill:#ebeded;fill-opacity:1"
       id="g3683"
       transform="matrix(0.2025,0,0,0.2025,11.313137,17.859557)" />
    <g
       style="fill:#ebeded;fill-opacity:1"
       id="g3685"
       transform="matrix(0.2025,0,0,0.2025,11.313137,17.859557)" />
    <g
       style="fill:#ebeded;fill-opacity:1"
       id="g3687"
       transform="matrix(0.2025,0,0,0.2025,11.313137,17.859557)" />
    <g
       style="fill:#ebeded;fill-opacity:1"
       id="g3689"
       transform="matrix(0.2025,0,0,0.2025,11.313137,17.859557)" />
    <g
       style="fill:#ebeded;fill-opacity:1"
       id="g3691"
       transform="matrix(0.2025,0,0,0.2025,11.313137,17.859557)" />
    <g
       style="fill:#ebeded;fill-opacity:1"
       id="g3693"
       transform="matrix(0.2025,0,0,0.2025,11.313137,17.859557)" />
    <g
       style="fill:#ebeded;fill-opacity:1"
       id="g3695"
       transform="matrix(0.2025,0,0,0.2025,11.313137,17.859557)" />
    <g
       style="fill:#ebeded;fill-opacity:1"
       id="g3697"
       transform="matrix(0.2025,0,0,0.2025,11.313137,17.859557)" />
    <g
       style="fill:#ebeded;fill-opacity:1"
       id="g3699"
       transform="matrix(0.2025,0,0,0.2025,11.313137,17.859557)" />
    <g
       style="fill:#ebeded;fill-opacity:1"
       id="g3701"
       transform="matrix(0.2025,0,0,0.2025,11.313137,17.859557)" />
    <g
       style="fill:#ebeded;fill-opacity:1"
       id="g3703"
       transform="matrix(0.2025,0,0,0.2025,11.313137,17.859557)" />
    <g
       style="fill:#ebeded;fill-opacity:1"
       id="g3705"
       transform="matrix(0.2025,0,0,0.2025,11.313137,17.859557)" />
    <g
       style="fill:#ebeded;fill-opacity:1"
       id="g3707"
       transform="matrix(0.2025,0,0,0.2025,11.313137,17.859557)" />
    <g
       style="fill:#ebeded;fill-opacity:1"
       id="g3709"
       transform="matrix(0.2025,0,0,0.2025,11.313137,17.859557)" />
    <g
       style="fill:#737370;fill-opacity:1;stroke:none"
       id="g599"
       transform="matrix(0.51884044,0,0,0.51884044,-65.847195,-54.488427)">
      <polygon
         transform="matrix(0.1356032,0.2932032,-0.00416466,0.97115047,323.55068,-54.480993)"
         id="polygon597"
         points="184.642,143.629 340.526,71.579 340.526,274.219 184.642,357.35 "
         style="fill:#737370;fill-opacity:1;stroke:none" />
      <rect
         y="139.58749"
         x="133.37123"
         height="207.25262"
         width="207.25262"
         id="rect1581"
         style="fill:#737370;fill-opacity:1;stroke:none;stroke-width:2.33212352;stroke-opacity:1" />
      <polygon
         transform="matrix(-0.31823348,-0.13560319,-0.97038174,0.00416466,540.83715,157.00748)"
         id="polygon597-3"
         points="340.526,274.219 184.642,357.35 184.642,143.629 340.526,71.579 "
         style="fill:#737370;fill-opacity:1;stroke:none" />
    </g>
    <g
       id="g601"
       transform="matrix(0.3375,0,0,0.3375,136.96358,-2.8188527)" />
    <g
       id="g603"
       transform="matrix(0.3375,0,0,0.3375,136.96358,-2.8188527)" />
    <g
       id="g605"
       transform="matrix(0.3375,0,0,0.3375,136.96358,-2.8188527)" />
    <g
       id="g607"
       transform="matrix(0.3375,0,0,0.3375,136.96358,-2.8188527)" />
    <g
       id="g609"
       transform="matrix(0.3375,0,0,0.3375,136.96358,-2.8188527)" />
    <g
       id="g611"
       transform="matrix(0.3375,0,0,0.3375,136.96358,-2.8188527)" />
    <g
       id="g613"
       transform="matrix(0.3375,0,0,0.3375,136.96358,-2.8188527)" />
    <g
       id="g615"
       transform="matrix(0.3375,0,0,0.3375,136.96358,-2.8188527)" />
    <g
       id="g617"
       transform="matrix(0.3375,0,0,0.3375,136.96358,-2.8188527)" />
    <g
       id="g619"
       transform="matrix(0.3375,0,0,0.3375,136.96358,-2.8188527)" />
    <g
       id="g621"
       transform="matrix(0.3375,0,0,0.3375,136.96358,-2.8188527)" />
    <g
       id="g623"
       transform="matrix(0.3375,0,0,0.3375,136.96358,-2.8188527)" />
    <g
       id="g625"
       transform="matrix(0.3375,0,0,0.3375,136.96358,-2.8188527)" />
    <g
       id="g627"
       transform="matrix(0.3375,0,0,0.3375,136.96358,-2.8188527)" />
    <g
       id="g629"
       transform="matrix(0.3375,0,0,0.3375,136.96358,-2.8188527)" />
    <path
       style="fill:#ebeded;fill-opacity:1"
       id="path10310"
       d="m 41.545558,56.814842 c -0.45504,-0.57216 -0.62448,-1.32096 -0.46032,-2.03376 l 2.92848,-12.689759 c 0.35424,-1.5336 1.70016,-2.60448 3.27408,-2.60448 l 19.77504,0 c 1.57344,0 2.91984,1.07088 3.27408,2.604 l 2.88,12.47904 c 0.07776,0.23616 0.12,0.48864 0.12,0.75072 0,1.325279 -1.07472,2.399999 -2.4,2.399999 -0.0036,0 -0.0072,0 -0.0096,0 l -27.50352,0 c -0.73152,0 -1.42272,-0.333599 -1.87824,-0.90576 z m -15.23616,24.57792 27.50256,0 c 0.0024,0 0.006,0 0.0096,0 1.32528,0 2.4,-1.07472 2.4,-2.4 0,-0.26208 -0.04176,-0.51456 -0.12,-0.75072 l -2.88,-12.47904 c -0.35424,-1.53312 -1.70016,-2.604 -3.27408,-2.604 l -19.77408,0 c -1.57344,0 -2.91984,1.07088 -3.27408,2.604 l -2.92848,12.68976 c -0.16416,0.7128 0.0048,1.4616 0.46032,2.03376 0.45552,0.57264 1.14672,0.90624 1.87824,0.90624 z m 34.81872,-15.62928 -2.92848,12.68976 c -0.16416,0.7128 0.0048,1.4616 0.46032,2.03376 0.45552,0.57216 1.14672,0.90576 1.87824,0.90576 l 27.502554,0 c 0.0029,0 0.0058,0 0.0096,0 1.32528,0 2.400001,-1.07472 2.400001,-2.4 0,-0.26208 -0.04176,-0.51456 -0.12,-0.75072 l -2.880001,-12.47904 c -0.35424,-1.53312 -1.70016,-2.604 -3.274074,-2.604 l -19.77504,0 c -1.57296,0 -2.91936,1.07088 -3.27312,2.60448 z m -24.94416,23.6736 c -0.35328,-1.53408 -1.69968,-2.60592 -3.27408,-2.60592 l -19.77504,0 c -1.57392,0 -2.91984,1.07088 -3.2740801,2.60448 L 6.932278,102.12541 c -0.1641601,0.71232 0.0048,1.46112 0.46032,2.03376 0.45552,0.57216 1.14672,0.90576 1.8782399,0.90576 l 27.5025601,0 c 0.0024,0 0.006,0 0.0096,0 1.32528,0 2.4,-1.07472 2.4,-2.4 0,-0.26208 -0.04176,-0.51456 -0.12,-0.75072 l -2.87904,-12.477128 z m 71.184952,12.477128 -2.87952,-12.478568 c -0.35376,-1.53312 -1.70016,-2.60448 -3.27408,-2.60448 l -19.775032,0 c -1.5744,0 -2.9208,1.07136 -3.27408,2.60448 l -2.92848,12.689768 c -0.16416,0.7128 0.0048,1.4616 0.46032,2.03376 0.45552,0.57216 1.14672,0.90576 1.87824,0.90576 l 27.502552,0 c 0.003,0 0.006,0 0.01,0 1.32528,0 2.4,-1.07472 2.4,-2.4 0,-0.26208 -0.0418,-0.51456 -0.11952,-0.75072 z M 70.336438,89.435642 c -0.35376,-1.53312 -1.70016,-2.60448 -3.27408,-2.60448 l -19.77456,0 c -1.57392,0 -2.91984,1.07088 -3.27408,2.60448 l -2.92848,12.689768 c -0.16416,0.7128 0.0048,1.4616 0.46032,2.03376 0.45552,0.57216 1.14672,0.90576 1.87824,0.90576 l 27.50256,0 c 0.0024,0 0.006,0 0.0096,0 1.32528,0 2.4,-1.07472 2.4,-2.4 0,-0.26208 -0.04176,-0.51456 -0.12,-0.75072 l -2.87952,-12.478568 z" />
    <g
       id="g10312"
       transform="translate(-227.6389,-46.166873)" />
    <g
       id="g10314"
       transform="translate(-227.6389,-46.166873)" />
    <g
       id="g10316"
       transform="translate(-227.6389,-46.166873)" />
    <g
       id="g10318"
       transform="translate(-227.6389,-46.166873)" />
    <g
       id="g10320"
       transform="translate(-227.6389,-46.166873)" />
    <g
       id="g10322"
       transform="translate(-227.6389,-46.166873)" />
    <g
       id="g10324"
       transform="translate(-227.6389,-46.166873)" />
    <g
       id="g10326"
       transform="translate(-227.6389,-46.166873)" />
    <g
       id="g10328"
       transform="translate(-227.6389,-46.166873)" />
    <g
       id="g10330"
       transform="translate(-227.6389,-46.166873)" />
    <g
       id="g10332"
       transform="translate(-227.6389,-46.166873)" />
    <g
       id="g10334"
       transform="translate(-227.6389,-46.166873)" />
    <g
       id="g10336"
       transform="translate(-227.6389,-46.166873)" />
    <g
       id="g10338"
       transform="translate(-227.6389,-46.166873)" />
    <g
       id="g10340"
       transform="translate(-227.6389,-46.166873)" />
  </g>
  <defs
     id="defs2449" />
</svg>
